<?xml version="1.0" standalone="no"?>
<!DOCTYPE svg PUBLIC "-//W3C//DTD SVG 20010904//EN"
 "http://www.w3.org/TR/2001/REC-SVG-20010904/DTD/svg10.dtd">
<svg version="1.0" xmlns="http://www.w3.org/2000/svg"
 width="1024.000000pt" height="1024.000000pt" viewBox="0 0 1024.000000 1024.000000"
 preserveAspectRatio="xMidYMid meet">
<metadata>
Created by potrace 1.11, written by Peter Selinger 2001-2013
</metadata>
<g transform="translate(0.000000,1024.000000) scale(0.100000,-0.100000)"
fill="#000000" stroke="none">
<path d="M265 10113 c-47 -12 -102 -62 -124 -112 l-21 -50 0 -4823 c0 -3493 3
-4834 11 -4863 13 -48 38 -81 86 -115 l36 -25 4852 -3 c4143 -2 4858 0 4886
12 43 18 96 68 113 109 12 27 14 739 15 4877 0 4478 -1 4848 -16 4878 -21 44
-67 89 -107 107 -26 11 -798 13 -4871 13 -2662 0 -4849 -3 -4860 -5z"/>
</g>
</svg>
